<svg xmlns="http://www.w3.org/2000/svg" width="64" height="64" viewBox="0 0 64 64" shape-rendering="crispEdges">
  <g stroke="#1A1C2C" stroke-linejoin="miter">
    <path d="M32 57L7 32L4 26V17L12 9H22L32 19L42 9H52L60 17V26L57 32Z" fill="#1A1C2C" stroke-width="2.5"/>
    <path d="M32 52L11 31L8 25V18L13 13H21L32 24L43 13H51L56 18V25L53 31Z" fill="#D95A3C" stroke-width="1.5"/>
    <path d="M13 20H20L31 31V39L16 24Z" fill="#FFB3A0" stroke="none"/>
    <path d="M23 35L32 44L42 34L48 28V34L32 49L23 40Z" fill="#A95035" stroke="none"/>
    <path d="M16 16H20L23 19L19 23L15 19Z" fill="#F4F4F4" stroke="none"/>
  </g>
</svg>